<svg xmlns="http://www.w3.org/2000/svg" version="1.1" xmlns:xlink="http://www.w3.org/1999/xlink" xmlns:svgjs="http://svgjs.dev/svgjs" width="1500" height="1500" viewBox="0 0 1500 1500"><rect width="1500" height="1500" fill="#000000"></rect><g transform="matrix(0.2996703626011388,0,0,0.2996703626011388,525.7014623917214,250.40485829959516)"><svg viewBox="0 0 111 247" data-background-color="#000000" preserveAspectRatio="xMidYMid meet" height="3337" width="1500" xmlns="http://www.w3.org/2000/svg" xmlns:xlink="http://www.w3.org/1999/xlink"><g id="tight-bounds" transform="matrix(1,0,0,1,-0.11216772008691578,-0.09999999999999432)"><svg viewBox="0 0 111.22433544017382 247.2" height="247.2" width="111.22433544017382"><rect width="111.22433544017382" height="247.2" fill="url(#2ae8a716-be55-4336-a96e-1bdda0289eb8)" mask="url(#53ab3d23-3505-4033-921d-e935000c8e00)" data-fill-palette-color="tertiary"></rect><g><svg viewBox="0 0 166.832276635514 370.7906064" height="247.2" width="111.22433544017382"><g><svg viewBox="0 0 166.832276635514 370.7906064" height="370.7906064" width="166.832276635514"><g id="textblocktransform"><svg viewBox="0 0 166.832276635514 370.7906064" height="370.7906064" width="166.832276635514" id="textblock"><g><rect width="166.832276635514" height="247.2" fill="none" stroke-width="9.018103199999999" stroke="url(#2ae8a716-be55-4336-a96e-1bdda0289eb8)" data-fill-palette-color="none" data-stroke-palette-color="tertiary"></rect><rect width="166.832276635514" height="123.5906064" y="247.2" fill="url(#2ae8a716-be55-4336-a96e-1bdda0289eb8)" data-fill-palette-color="tertiary"></rect></g><g><svg viewBox="0 0 166.832276635514 247.2" height="247.2" width="166.832276635514"><g transform="matrix(1,0,0,1,23.60759999999999,23.607599999999998)"><svg width="119.61707663551402" viewBox="3.64 -31.35 18.75 31.35" height="199.9848" data-palette-color="url(#4dd60d71-4069-48e6-8977-3dd680436f70)"></svg></g></svg></g></svg></g></svg></g><g></g></svg></g><defs></defs><mask id="dee8088f-a0b1-47d7-905e-21e0aa57802d"><g id="SvgjsG4783"><svg viewBox="0 0 111.22433544017382 247.2" height="247.2" width="111.22433544017382"><g><svg viewBox="0 0 166.832276635514 370.7906064" height="247.2" width="111.22433544017382"><g><svg viewBox="0 0 166.832276635514 370.7906064" height="370.7906064" width="166.832276635514"><g id="SvgjsG4782"><svg viewBox="0 0 166.832276635514 370.7906064" height="370.7906064" width="166.832276635514" id="SvgjsSvg4781"><g><rect width="166.832276635514" height="247.2" fill="black" stroke-width="9.018103199999999" stroke="url(#2ae8a716-be55-4336-a96e-1bdda0289eb8)" data-stroke-palette-color="tertiary"></rect><rect width="166.832276635514" height="123.5906064" y="247.2" fill="black"></rect></g><g><svg viewBox="0 0 166.832276635514 247.2" height="247.2" width="166.832276635514"><g transform="matrix(1,0,0,1,23.60759999999999,23.607599999999998)"><svg width="119.61707663551402" viewBox="3.64 -31.35 18.75 31.35" height="199.9848" data-palette-color="url(#4dd60d71-4069-48e6-8977-3dd680436f70)"><path d="M6.76-28.91L6.76-15.63 8.81-15.63Q11.38-15.63 12.67-15.7 13.96-15.77 15.49-16.09 17.02-16.41 17.68-17.09 18.33-17.77 18.8-18.98 19.26-20.19 19.26-22.05L19.26-22.05Q19.26-25.98 17.63-27.44 15.99-28.91 12.35-28.91L12.35-28.91 6.76-28.91ZM3.64-31.35L12.16-31.35Q14.65-31.35 16.44-30.91 18.24-30.47 19.62-29.43 21-28.39 21.69-26.56 22.39-24.73 22.39-22.09L22.39-22.09Q22.39-19.87 21.83-18.27 21.26-16.67 20.25-15.67 19.24-14.67 17.57-14.1 15.89-13.53 13.98-13.31 12.06-13.09 9.38-13.09L9.38-13.09 6.76-13.09 6.76 0 3.64 0 3.64-31.35Z" opacity="1" transform="matrix(1,0,0,1,0,0)" fill="white" class="wordmark-text-0" id="SvgjsPath4780"></path></svg></g></svg></g></svg></g></svg></g><g></g></svg></g><defs><mask></mask></defs></svg><rect width="111.22433544017382" height="247.2" fill="black" stroke="none" visibility="hidden"></rect></g></mask><linearGradient x1="0.054" x2="0.941" y1="0.5" y2="0.5" id="4dd60d71-4069-48e6-8977-3dd680436f70"><stop stop-color="#8c8c8c" offset="0"></stop><stop stop-color="#e3e4e5" offset="0.498"></stop><stop stop-color="#8c8c8c" offset="1"></stop></linearGradient><rect width="111.22433544017382" height="247.2" fill="url(#4dd60d71-4069-48e6-8977-3dd680436f70)" mask="url(#dee8088f-a0b1-47d7-905e-21e0aa57802d)" data-fill-palette-color="primary"></rect><mask id="53ab3d23-3505-4033-921d-e935000c8e00"><g id="SvgjsG4806"><svg viewBox="0 0 111.22433544017382 247.2" height="247.2" width="111.22433544017382"><g><svg viewBox="0 0 166.832276635514 370.7906064" height="247.2" width="111.22433544017382"><g><svg viewBox="0 0 166.832276635514 370.7906064" height="370.7906064" width="166.832276635514"><g id="SvgjsG4805"><svg viewBox="0 0 166.832276635514 370.7906064" height="370.7906064" width="166.832276635514" id="SvgjsSvg4804"><g><rect width="166.832276635514" height="247.2" fill="black" stroke-width="9.018103199999999" stroke="url(#2ae8a716-be55-4336-a96e-1bdda0289eb8)" data-stroke-palette-color="tertiary"></rect><rect width="166.832276635514" height="123.5906064" y="247.2" fill="white"></rect></g><g><svg viewBox="0 0 166.832276635514 247.2" height="247.2" width="166.832276635514"><g transform="matrix(1,0,0,1,23.60759999999999,23.607599999999998)"><svg width="119.61707663551402" viewBox="3.64 -31.35 18.75 31.35" height="199.9848" data-palette-color="url(#4dd60d71-4069-48e6-8977-3dd680436f70)"></svg></g></svg></g></svg></g></svg></g><g></g></svg></g><defs><mask></mask></defs><mask><g id="SvgjsG4803"><svg viewBox="0 0 111.22433544017382 247.2" height="247.2" width="111.22433544017382"><g><svg viewBox="0 0 166.832276635514 370.7906064" height="247.2" width="111.22433544017382"><g><svg viewBox="0 0 166.832276635514 370.7906064" height="370.7906064" width="166.832276635514"><g id="SvgjsG4802"><svg viewBox="0 0 166.832276635514 370.7906064" height="370.7906064" width="166.832276635514" id="SvgjsSvg4801"><g><rect width="166.832276635514" height="247.2" fill="black" stroke-width="9.018103199999999" stroke="url(#2ae8a716-be55-4336-a96e-1bdda0289eb8)" data-stroke-palette-color="tertiary"></rect><rect width="166.832276635514" height="123.5906064" y="247.2" fill="black"></rect></g><g><svg viewBox="0 0 166.832276635514 247.2" height="247.2" width="166.832276635514"><g transform="matrix(1,0,0,1,23.60759999999999,23.607599999999998)"><svg width="119.61707663551402" viewBox="3.64 -31.35 18.75 31.35" height="199.9848" data-palette-color="url(#4dd60d71-4069-48e6-8977-3dd680436f70)"><path d="M6.76-28.91L6.76-15.63 8.81-15.63Q11.38-15.63 12.67-15.7 13.96-15.77 15.49-16.09 17.02-16.41 17.68-17.09 18.33-17.77 18.8-18.98 19.26-20.19 19.26-22.05L19.26-22.05Q19.26-25.98 17.63-27.44 15.99-28.91 12.35-28.91L12.35-28.91 6.76-28.91ZM3.64-31.35L12.16-31.35Q14.65-31.35 16.44-30.91 18.24-30.47 19.62-29.43 21-28.39 21.69-26.56 22.39-24.73 22.39-22.09L22.39-22.09Q22.39-19.87 21.83-18.27 21.26-16.67 20.25-15.67 19.24-14.67 17.57-14.1 15.89-13.53 13.98-13.31 12.06-13.09 9.38-13.09L9.38-13.09 6.76-13.09 6.76 0 3.64 0 3.64-31.35Z" opacity="1" transform="matrix(1,0,0,1,0,0)" fill="black" class="wordmark-text-0" id="SvgjsPath4800"></path></svg></g></svg></g></svg></g></svg></g><g></g></svg></g><defs><mask></mask></defs></svg><rect width="111.22433544017382" height="247.2" fill="black" stroke="none" visibility="hidden"></rect></g></mask></svg><rect width="111.22433544017382" height="247.2" fill="black" stroke="none" visibility="hidden"></rect></g></mask><linearGradient x1="0.054" x2="0.941" y1="0.5" y2="0.5" id="2ae8a716-be55-4336-a96e-1bdda0289eb8"><stop stop-color="#8c8c8c" offset="0"></stop><stop stop-color="#e3e4e5" offset="0.498"></stop><stop stop-color="#8c8c8c" offset="1"></stop></linearGradient></svg><rect width="111.22433544017382" height="247.2" fill="none" stroke="none" visibility="hidden"></rect></g></svg></g></svg>